<svg width="29" height="30" viewBox="0 0 29 30" fill="none" xmlns="http://www.w3.org/2000/svg">
<path d="M9.08552 6.84221C8.86899 7.01351 8.83228 7.32799 9.00361 7.54455L14.8977 14.995L13.3292 16.2359L8.67596 10.3539C8.50464 10.1374 8.19018 10.1007 7.97362 10.272C7.75704 10.4434 7.72038 10.7578 7.89171 10.9744L13.7858 18.4248C13.5085 18.6443 12.2173 19.6657 12.2173 19.6657C10.9128 18.631 9.56454 18.501 8.66956 19.0572C9.35428 19.4652 10.4723 20.1016 12.2455 21.0453C14.1367 22.0518 15.7216 22.6591 17.2001 22.735C18.6282 22.8081 20.0569 22.3894 21.658 21.1227C24.0403 19.238 24.4438 15.7792 22.5592 13.397L17.2854 6.73067C17.114 6.51411 16.7996 6.47746 16.583 6.64876C16.3665 6.82006 16.3298 7.13454 16.5011 7.35111L19.6033 11.2724L18.0348 12.5133L13.0713 6.2392C12.9 6.02264 12.5855 5.98599 12.3689 6.15729C12.1524 6.32859 12.1157 6.64307 12.287 6.85964L17.2505 13.1337L15.682 14.3746L9.78787 6.92412C9.61654 6.70755 9.30206 6.67091 9.08552 6.84221ZM24.1277 12.1562C26.6977 15.4047 26.1474 20.1213 22.8989 22.6912C20.9708 24.2165 19.0752 24.8338 17.0977 24.7323C15.1705 24.6335 13.2687 23.8554 11.3059 22.8109C9.2575 21.7207 8.05108 21.024 7.36178 20.6042C6.48403 20.0697 6.03457 18.707 7.02711 17.8023C7.88277 17.0224 8.88375 16.7084 9.89609 16.7316L6.32319 12.2152C5.46655 11.1324 5.64992 9.56015 6.73275 8.70351C6.87785 8.58872 7.03174 8.49261 7.19151 8.41483C6.6292 7.36782 6.88002 6.03683 7.84465 5.27369C8.67597 4.61603 9.79572 4.57135 10.6587 5.07601C10.7892 4.89721 10.946 4.73284 11.1281 4.58877C12.2109 3.73214 13.7832 3.9155 14.6398 4.99833L14.9811 5.42968C15.0875 5.30371 15.2079 5.18646 15.3422 5.08025C16.425 4.22361 17.9973 4.40697 18.8539 5.48981L24.1277 12.1562Z" fill="white"/>
</svg>
